<svg width="32" height="32" viewBox="0 0 32 32" fill="none" xmlns="http://www.w3.org/2000/svg">
<path d="M0 6.25407C0 2.80004 2.80004 0 6.25407 0H25.7459C29.2 0 32 2.80004 32 6.25407V25.7459C32 29.2 29.2 32 25.7459 32H6.25407C2.80004 32 0 29.2 0 25.7459V6.25407Z" fill="white"/>
<path d="M28.665 16.0397C28.665 22.9686 23.0125 28.5856 16.0397 28.5856C9.06694 28.5856 3.41439 22.9686 3.41439 16.0397C3.41439 9.11079 9.06694 3.4938 16.0397 3.4938C23.0125 3.4938 28.665 9.11079 28.665 16.0397Z" fill="url(#paint0_linear_604_262)"/>
<path d="M23.4017 12.4891L14.3154 21.5754C14.1933 21.6975 13.9953 21.6975 13.8732 21.5754L8.9727 16.6749L10.7764 14.8712C10.8985 14.7491 11.0965 14.7491 11.2186 14.8712L13.8732 17.5258C13.9953 17.6479 14.1933 17.6479 14.3154 17.5258L21.3769 10.4643C21.499 10.3422 21.697 10.3422 21.8191 10.4643L23.4017 12.0469C23.5238 12.169 23.5238 12.367 23.4017 12.4891Z" fill="white"/>
<defs>
<linearGradient id="paint0_linear_604_262" x1="0" y1="16" x2="32" y2="16" gradientUnits="userSpaceOnUse">
<stop stop-color="#65379B"/>
<stop offset="0.53" stop-color="#886AEA"/>
<stop offset="1" stop-color="#6457C6"/>
</linearGradient>
</defs>
</svg>
